<svg xmlns="http://www.w3.org/2000/svg" viewBox="0 0 220 260" width="220" height="260">
  <defs>
    <linearGradient id="stampBg" x1="0" y1="0" x2="1" y2="1">
      <stop offset="0" stop-color="#F4E6C1"/>
      <stop offset="1" stop-color="#E5CE95"/>
    </linearGradient>
    <linearGradient id="mangoGrad" x1="0" y1="0" x2="0" y2="1">
      <stop offset="0" stop-color="#F5C03A"/>
      <stop offset="0.55" stop-color="#E8A21E"/>
      <stop offset="1" stop-color="#C0301F"/>
    </linearGradient>
    <linearGradient id="leafGrad" x1="0" y1="0" x2="1" y2="1">
      <stop offset="0" stop-color="#4FB83A"/>
      <stop offset="1" stop-color="#1F4A33"/>
    </linearGradient>
    <pattern id="perf" width="12" height="12" patternUnits="userSpaceOnUse">
      <circle cx="6" cy="6" r="4" fill="#DFF0D8"/>
    </pattern>
    <filter id="paper" x="-10%" y="-10%" width="120%" height="120%">
      <feTurbulence type="fractalNoise" baseFrequency="0.9" numOctaves="2" seed="4"/>
      <feColorMatrix values="0 0 0 0 0.35 0 0 0 0 0.25 0 0 0 0 0.1 0 0 0 0.12 0"/>
      <feComposite in2="SourceGraphic" operator="in"/>
    </filter>
  </defs>

  <!-- Perforated edges: bumps around the frame -->
  <g>
    <rect x="0" y="0" width="220" height="260" fill="#DFF0D8"/>
    <rect x="10" y="10" width="200" height="240" fill="url(#stampBg)"/>
  </g>
  <!-- Scalloped perforations -->
  <g fill="#DFF0D8">
    <!-- top -->
    <g>
      <circle cx="18" cy="10" r="6"/><circle cx="36" cy="10" r="6"/><circle cx="54" cy="10" r="6"/>
      <circle cx="72" cy="10" r="6"/><circle cx="90" cy="10" r="6"/><circle cx="108" cy="10" r="6"/>
      <circle cx="126" cy="10" r="6"/><circle cx="144" cy="10" r="6"/><circle cx="162" cy="10" r="6"/>
      <circle cx="180" cy="10" r="6"/><circle cx="198" cy="10" r="6"/>
    </g>
    <!-- bottom -->
    <g>
      <circle cx="18" cy="250" r="6"/><circle cx="36" cy="250" r="6"/><circle cx="54" cy="250" r="6"/>
      <circle cx="72" cy="250" r="6"/><circle cx="90" cy="250" r="6"/><circle cx="108" cy="250" r="6"/>
      <circle cx="126" cy="250" r="6"/><circle cx="144" cy="250" r="6"/><circle cx="162" cy="250" r="6"/>
      <circle cx="180" cy="250" r="6"/><circle cx="198" cy="250" r="6"/>
    </g>
    <!-- left -->
    <g>
      <circle cx="10" cy="28" r="6"/><circle cx="10" cy="46" r="6"/><circle cx="10" cy="64" r="6"/>
      <circle cx="10" cy="82" r="6"/><circle cx="10" cy="100" r="6"/><circle cx="10" cy="118" r="6"/>
      <circle cx="10" cy="136" r="6"/><circle cx="10" cy="154" r="6"/><circle cx="10" cy="172" r="6"/>
      <circle cx="10" cy="190" r="6"/><circle cx="10" cy="208" r="6"/><circle cx="10" cy="226" r="6"/>
    </g>
    <!-- right -->
    <g>
      <circle cx="210" cy="28" r="6"/><circle cx="210" cy="46" r="6"/><circle cx="210" cy="64" r="6"/>
      <circle cx="210" cy="82" r="6"/><circle cx="210" cy="100" r="6"/><circle cx="210" cy="118" r="6"/>
      <circle cx="210" cy="136" r="6"/><circle cx="210" cy="154" r="6"/><circle cx="210" cy="172" r="6"/>
      <circle cx="210" cy="190" r="6"/><circle cx="210" cy="208" r="6"/><circle cx="210" cy="226" r="6"/>
    </g>
  </g>

  <!-- Inner frame -->
  <rect x="22" y="22" width="176" height="216" fill="none" stroke="#1F4A33" stroke-width="1.2" stroke-dasharray="2 3" opacity="0.5"/>

  <!-- Mango illustration -->
  <g transform="translate(110 120)">
    <ellipse cx="0" cy="0" rx="58" ry="66" fill="url(#mangoGrad)"/>
    <path d="M -22 -46 C -10 -60, 12 -60, 22 -44 C 18 -56, 4 -64, -10 -60 Z" fill="url(#leafGrad)"/>
    <path d="M 0 -54 L 0 -20" stroke="#1F4A33" stroke-width="1.2" stroke-linecap="round" opacity="0.4"/>
    <!-- highlight -->
    <ellipse cx="-18" cy="-18" rx="14" ry="22" fill="#fff" opacity="0.25"/>
  </g>

  <!-- Banner -->
  <g transform="translate(110 200)">
    <rect x="-70" y="-14" width="140" height="28" rx="3" fill="#1F4A33"/>
    <text x="0" y="5" text-anchor="middle" fill="#F4E6C1" font-family="Georgia, serif" font-style="italic" font-weight="700" font-size="15" letter-spacing="1.5">KANAA · TAMIL NADU</text>
  </g>

  <!-- Value / country -->
  <text x="30" y="48" fill="#1F4A33" font-family="Georgia, serif" font-weight="700" font-size="14" letter-spacing="2">INDIA</text>
  <text x="190" y="48" text-anchor="end" fill="#C0301F" font-family="Georgia, serif" font-weight="800" font-size="18" letter-spacing="1">₹5</text>

  <!-- Texture overlay -->
  <rect x="10" y="10" width="200" height="240" filter="url(#paper)" opacity="0.4"/>
</svg>
